<svg version="1.1" id="Layer_1" xmlns="http://www.w3.org/2000/svg" xmlns:xlink="http://www.w3.org/1999/xlink" x="0px" y="0px"
	 width="100%" viewBox="0 0 560 288" enable-background="new 0 0 560 288" xml:space="preserve">
<path fill="#000000" opacity="1.000000" stroke="none" 
	d="
M344.046204,136.272461 
	C345.702545,129.570755 347.349274,123.291672 348.742981,116.956917 
	C349.433990,113.816071 350.981445,112.380302 354.256927,112.651154 
	C357.876617,112.950462 361.557098,112.246704 365.162109,113.137573 
	C366.264526,115.077324 365.274872,116.797226 364.795288,118.458145 
	C358.748871,139.399841 352.528503,160.292343 346.652679,181.281418 
	C345.449371,185.579865 343.555817,187.204102 339.049713,187.053711 
	C329.265625,186.727142 329.417633,186.912659 327.703125,177.496155 
	C324.995941,162.627762 322.050629,147.802719 318.444031,132.860855 
	C315.738190,145.543915 313.033661,158.227264 310.325562,170.909836 
	C309.735046,173.675369 309.208832,176.457794 308.511322,179.196365 
	C307.885925,181.651993 308.619568,185.303482 305.458771,185.963120 
	C301.278870,186.835419 296.848175,186.804642 292.602814,185.743225 
	C291.424713,185.448685 291.112122,184.055222 290.807709,182.912689 
	C284.809418,160.398926 278.801331,137.887772 272.840912,115.363983 
	C272.601471,114.459122 272.810364,113.435616 272.810364,112.250267 
	C277.385193,111.199142 281.867462,111.611443 286.290405,111.867081 
	C290.069366,112.085495 289.564056,115.682182 290.096893,118.021904 
	C293.308380,132.124359 296.302490,146.276337 299.379791,160.409454 
	C299.447632,160.721085 299.640106,161.005569 300.230499,162.311432 
	C302.140411,153.298416 303.888397,145.155960 305.586517,137.003143 
	C307.010254,130.167816 308.454041,123.334938 309.731873,116.471733 
	C310.308777,113.373245 311.740051,111.956810 315.054382,111.832588 
	C327.699554,111.358635 327.730560,111.262375 330.175201,123.996155 
	C332.524628,136.234009 334.792511,148.487503 337.373322,162.207153 
	C340.435944,152.921249 342.081696,144.768677 344.046204,136.272461 
z"/>
<path fill="#000000" opacity="1.000000" stroke="none" 
	d="
M195.370667,163.048096 
	C195.357285,168.869492 195.129669,174.209427 195.401459,179.523849 
	C195.617371,183.746063 194.297562,185.070801 189.847397,185.447311 
	C182.182693,186.095840 177.797272,183.538177 174.328812,176.463089 
	C168.182510,163.925461 160.882721,151.952911 154.048981,139.753204 
	C153.101425,138.061584 152.059418,136.422867 150.218307,134.909821 
	C150.218307,141.661285 150.244034,148.412872 150.211639,155.164185 
	C150.173294,163.157379 149.917709,171.153809 150.084717,179.141983 
	C150.175690,183.492813 148.649094,185.090210 144.227951,184.770996 
	C134.670197,184.080917 134.635284,184.230820 134.681274,174.760208 
	C134.775879,155.276688 135.014587,135.792801 134.927399,116.310272 
	C134.906113,111.555687 136.476685,110.016716 141.267242,109.925453 
	C148.949844,109.779099 153.933121,112.034698 157.518066,119.607262 
	C163.273697,131.764923 170.479355,143.236740 177.093719,154.986298 
	C177.721542,156.101547 178.048492,157.467346 179.630005,158.252350 
	C181.215607,147.082474 180.464081,135.983582 180.670486,124.922356 
	C180.695343,123.590515 180.665070,122.257660 180.688477,120.925766 
	C180.887115,109.623306 179.088943,110.856575 191.275330,110.666000 
	C195.396301,110.601562 196.381287,112.462669 196.282684,116.118248 
	C195.901184,130.262924 195.667923,144.411636 195.385590,158.558945 
	C195.359009,159.890732 195.375473,161.223389 195.370667,163.048096 
z"/>
<path fill="#000000" opacity="1.000000" stroke="none" 
	d="
M245.000458,171.678070 
	C250.666458,171.697937 255.835571,171.828827 260.998169,171.699417 
	C264.646118,171.607971 266.218353,173.209930 266.055664,176.773132 
	C265.979706,178.436523 266.010101,180.105087 266.004456,181.771347 
	C265.994873,184.601746 264.699646,186.119324 261.751495,186.070587 
	C245.260025,185.797989 228.768265,185.541611 212.276627,185.278351 
	C208.845490,185.223572 208.836914,182.756393 208.887131,180.350128 
	C209.116592,169.357895 209.469696,158.367584 209.615005,147.374435 
	C209.751541,137.043167 209.810913,126.707108 209.641159,116.377487 
	C209.575500,112.382599 210.754105,110.663116 215.022934,110.785690 
	C230.176819,111.220810 245.337814,111.438354 260.497559,111.614517 
	C263.631775,111.650940 265.200256,112.781158 265.050629,115.999420 
	C264.981018,117.496864 264.933685,119.000328 264.984497,120.497391 
	C265.104584,124.035141 263.637238,125.538330 259.914917,125.449333 
	C250.586685,125.226303 241.245255,125.496857 231.920700,125.202560 
	C227.664597,125.068230 225.991241,126.232468 226.076202,130.770859 
	C226.269104,141.074951 225.683212,139.586899 234.918137,139.701187 
	C242.250351,139.791931 249.584229,139.913345 256.915588,139.840500 
	C260.609253,139.803802 261.792114,141.187851 261.550842,144.961090 
	C261.001648,153.550659 261.195496,153.531433 252.415405,153.442596 
	C244.916397,153.366745 237.415131,153.449631 229.917725,153.309464 
	C226.791412,153.251038 225.519211,154.355560 225.344513,157.628357 
	C224.595795,171.654419 224.506393,171.649506 238.501480,171.667160 
	C240.501251,171.669678 242.501007,171.674225 245.000458,171.678070 
z"/>
<path fill="#000000" opacity="1.000000" stroke="none" 
	d="
M405.804749,143.076813 
	C410.907196,144.300751 415.483429,145.789261 419.945984,147.687424 
	C426.671234,150.548080 430.651215,155.345032 431.303528,162.767105 
	C432.055908,171.328156 430.123749,179.066162 422.458405,183.658020 
	C409.503967,191.418243 395.770386,191.685181 382.390533,184.889603 
	C374.359375,180.810593 370.807068,173.419876 370.670044,164.201340 
	C375.127472,163.049316 379.277557,163.789261 383.381989,163.706589 
	C385.521637,163.663467 385.891663,165.288071 386.520416,166.932861 
	C390.055634,176.180130 407.836517,179.213318 414.217255,171.723007 
	C417.314423,168.087234 415.903961,162.609711 410.988739,160.784424 
	C406.167206,158.993942 401.099609,157.873001 396.160309,156.390457 
	C392.496399,155.290741 388.845001,154.141632 385.223389,152.910400 
	C377.852203,150.404404 372.795044,145.698318 371.950439,137.643188 
	C371.076111,129.304657 373.651398,122.096184 380.421417,116.869980 
	C390.924438,108.762054 410.428894,109.078201 420.781067,117.405525 
	C426.402161,121.927162 429.436218,127.776314 429.629791,135.683243 
	C424.992401,136.748337 420.414093,136.346756 415.870331,135.990112 
	C414.308899,135.867523 414.109406,134.277985 413.571350,133.046432 
	C410.239319,125.419792 397.589783,122.023430 390.868530,126.920708 
	C388.579468,128.588593 387.252869,130.828690 387.396515,133.739212 
	C387.541779,136.681183 389.493713,138.184784 392.022339,138.981430 
	C396.462982,140.380463 400.948181,141.638199 405.804749,143.076813 
z"/>
<path fill="#000000" opacity="1.000000" stroke="none" 
	d="
M364.646423,213.608627 
	C346.883453,235.174500 324.715668,248.184540 297.196686,252.072723 
	C296.560699,249.334854 298.562439,248.704651 299.615570,247.680466 
	C312.127136,235.512817 322.715546,221.889664 331.069763,206.553162 
	C332.130524,204.605774 333.125183,202.747910 335.808105,202.784088 
	C346.636841,202.930130 357.466522,203.003571 368.295074,203.159485 
	C369.049591,203.170349 369.797607,203.634460 370.742157,203.953094 
	C369.709900,207.885269 366.858948,210.344543 364.646423,213.608627 
z"/>
<path fill="#000000" opacity="1.000000" stroke="none" 
	d="
M226.236191,235.831879 
	C211.995544,226.347260 197.350204,210.396057 195.251114,201.689728 
	C202.499847,201.689728 209.703918,202.482895 216.661224,201.510529 
	C228.132812,199.907257 234.764771,203.894714 239.727463,214.609558 
	C245.471024,227.010406 254.963287,237.190262 264.522400,247.021637 
	C265.630829,248.161652 267.274139,248.935211 267.579834,251.668350 
	C252.443863,249.616882 238.973938,244.254517 226.236191,235.831879 
z"/>
<path fill="#000000" opacity="1.000000" stroke="none" 
	d="
M213.166458,73.146461 
	C228.561539,59.267815 246.001709,50.531258 266.793579,48.379757 
	C262.780060,52.891876 258.739319,57.380177 254.758682,61.921124 
	C246.718597,71.092918 239.942596,81.125069 234.425568,92.005402 
	C233.518768,93.793732 232.696091,95.776840 230.282394,95.826820 
	C219.020370,96.060074 207.760910,96.122437 195.578064,94.975609 
	C200.156067,86.168388 206.435196,79.704422 213.166458,73.146461 
z"/>
<path fill="#000000" opacity="1.000000" stroke="none" 
	d="
M325.350983,78.609848 
	C318.539368,67.543716 310.248352,58.080673 301.435730,48.650364 
	C319.537506,44.858261 366.096649,77.079865 371.422485,96.786514 
	C366.674530,97.856400 361.892181,97.176956 357.166748,97.245575 
	C351.344330,97.330139 345.516663,97.087784 339.695404,97.200417 
	C336.639160,97.259560 334.848053,96.112938 333.477509,93.330009 
	C331.056915,88.414970 328.218994,83.705452 325.350983,78.609848 
z"/>
<path fill="#000000" opacity="1.000000" stroke="none" 
	d="
M313.988770,96.965187 
	C306.168304,96.760391 298.842590,96.521210 291.515015,96.382362 
	C289.119141,96.336967 287.216309,96.095581 287.260345,92.959869 
	C287.468597,78.132401 287.595764,63.303799 287.778656,48.475933 
	C287.784302,48.020191 288.084442,47.568085 288.576172,46.197903 
	C304.720581,60.432758 317.577332,76.512802 327.192780,95.900917 
	C322.663361,97.851837 318.494141,96.664391 313.988770,96.965187 
z"/>
<path fill="#000000" opacity="1.000000" stroke="none" 
	d="
M246.113800,85.172615 
	C255.426666,70.481186 266.393860,57.745613 279.347961,46.756859 
	C281.802246,48.722000 281.141418,50.871326 281.111511,52.756123 
	C280.905365,65.735710 280.578735,78.713341 280.347168,91.692612 
	C280.301727,94.237846 280.124023,96.345459 276.711700,96.304955 
	C265.723785,96.174515 254.734421,96.172882 243.746094,96.069649 
	C242.981400,96.062462 242.220703,95.630142 241.174332,95.308197 
	C241.636841,91.321220 244.264221,88.619087 246.113800,85.172615 
z"/>
<path fill="#000000" opacity="1.000000" stroke="none" 
	d="
M263.989197,201.951355 
	C279.370148,202.102158 279.373901,202.102173 279.282928,217.165543 
	C279.228577,226.161453 279.195557,235.157806 279.067780,244.152740 
	C279.043060,245.894913 279.577545,247.847870 277.371552,249.863159 
	C262.502899,236.423386 250.326233,221.010361 240.058228,201.947418 
	C248.775024,201.947418 256.133423,201.947418 263.989197,201.951355 
z"/>
<path fill="#000000" opacity="1.000000" stroke="none" 
	d="
M294.345337,243.350037 
	C291.760803,245.623947 289.933014,248.310974 286.893005,249.389664 
	C285.165649,248.174957 285.705566,246.535385 285.706055,245.153351 
	C285.710358,232.834503 285.881958,220.515091 285.798828,208.197235 
	C285.772552,204.302353 286.838531,202.426804 291.167999,202.548523 
	C300.816559,202.819748 310.476746,202.667526 320.131958,202.724945 
	C321.418610,202.732590 322.813385,202.427505 324.522278,204.062775 
	C317.031219,218.836166 306.406738,231.406616 294.345337,243.350037 
z"/>
</svg>